<svg width="23" height="28" viewBox="0 0 23 28" fill="none" xmlns="http://www.w3.org/2000/svg">
<path d="M12.0214 12.4485C11.6202 11.3693 11.229 10.5287 10.8479 9.92687C10.5068 9.32501 10.1157 8.79579 9.67433 8.3392C9.11264 7.7581 8.35035 7.32227 7.38745 7.03171C6.42455 6.74116 5.45162 6.60626 4.46867 6.62702L6.81573 4.19882C7.81875 4.15731 8.75155 4.31297 9.61415 4.66578C10.4968 4.99784 11.2992 5.53744 12.0214 6.28458C12.6031 6.88644 13.1147 7.54018 13.556 8.24581C14.0174 8.9722 14.5089 10.0203 15.0304 11.39C15.4317 12.4692 15.8028 13.3097 16.1438 13.9116C16.5249 14.5135 16.9261 15.0323 17.3474 15.4681C17.9292 16.07 18.7015 16.5162 19.6644 16.8068C20.6273 17.0973 21.6002 17.2322 22.5832 17.2115L20.2662 19.6085C19.2632 19.65 18.3203 19.5047 17.4377 19.1727C16.555 18.8406 15.7526 18.301 15.0304 17.5539C14.4688 16.9728 13.9472 16.3087 13.4657 15.5615C13.0244 14.8144 12.543 13.7767 12.0214 12.4485Z" fill="black"/>
<path d="M7.96923 16.6407C7.56802 15.5615 7.17685 14.721 6.7957 14.1192C6.45467 13.5173 6.0635 12.9881 5.62217 12.5315C5.06048 11.9504 4.29818 11.5145 3.33529 11.224C2.37239 10.9334 1.39946 10.7985 0.416504 10.8193L2.76357 8.3911C3.76658 8.34959 4.69939 8.50525 5.56199 8.85806C6.44464 9.19012 7.24706 9.72972 7.96923 10.4769C8.55098 11.0787 9.06252 11.7325 9.50385 12.4381C9.96524 13.1645 10.4567 14.2125 10.9783 15.5823C11.3795 16.6615 11.7506 17.502 12.0916 18.1039C12.4728 18.7057 12.874 19.2246 13.2953 19.6604C13.877 20.2623 14.6493 20.7085 15.6122 20.999C16.5751 21.2896 17.5481 21.4245 18.531 21.4037L16.214 23.8008C15.211 23.8423 14.2682 23.697 13.3855 23.365C12.5029 23.0329 11.7005 22.4933 10.9783 21.7462C10.4166 21.1651 9.89502 20.5009 9.41358 19.7538C8.97225 19.0067 8.4908 17.969 7.96923 16.6407Z" fill="black"/>
<path d="M14.9002 5.7346C15.2813 6.33646 15.6725 7.17699 16.0737 8.25619C16.266 8.74576 16.4528 9.19586 16.6341 9.60649L19.0487 7.10848C18.5398 5.78238 18.0597 4.76407 17.6083 4.05354C17.167 3.34792 16.6555 2.69417 16.0737 2.09231C15.3516 1.34517 14.5491 0.805575 13.6665 0.473514C12.8039 0.120699 11.8711 -0.0349541 10.8681 0.00655397L8.521 2.43475C9.50396 2.41399 10.4769 2.54889 11.4398 2.83945C12.4027 3.13 13.165 3.56583 13.7267 4.14694C14.168 4.60352 14.5592 5.13274 14.9002 5.7346Z" fill="black"/>
<path d="M6.29076 18.232L3.87788 20.7283C3.89094 20.7629 3.904 20.7979 3.91708 20.833C4.43865 22.1613 4.92009 23.199 5.36142 23.9461C5.84287 24.6932 6.36444 25.3573 6.92613 25.9385C7.6483 26.6856 8.45072 27.2252 9.33337 27.5573C10.216 27.8893 11.1589 28.0346 12.1619 27.9931L14.4789 25.596C13.4959 25.6168 12.523 25.4819 11.5601 25.1913C10.5972 24.9008 9.82485 24.4546 9.2431 23.8527C8.82183 23.4169 8.42063 22.898 8.03948 22.2962C7.69845 21.6943 7.32734 20.8538 6.92613 19.7746C6.70913 19.2047 6.49734 18.6905 6.29076 18.232Z" fill="black"/>
</svg>
